<svg viewBox="0 0 1440 833" fill="none" xmlns="http://www.w3.org/2000/svg"><path d="M892.25 2.45c-3.14 3.35-5.87 14.97-4.3 18.01.74 1.15 1.05 3.56.84 5.24-.31 2.83-.73 3.04-5.65 3.56-5.76.63-10.89 3.35-10.89 5.76 0 2.2-1.67 1.89-4.18-.73-2.52-2.72-2.73-5.66-.42-6.91 1.99-1.16 3.76-8.8 2.93-12.26-.84-3.46-5.24-6.8-8.9-6.8-7.12 0-11.72 9.73-8.69 18.43.74 2.2 1.05 4.4.74 4.92-.63 1.05-11.3 5.97-12.88 5.97-.52 0-2.62-1.47-4.71-3.25-3.56-3.14-4.71-6.49-2.62-7.75 1.89-1.15 1.26-9.42-.83-11.31-2.73-2.4-7.85-2.2-10.16.31-1.99 2.2-2.72 11-1.25 15.2.63 1.67.1 2.4-2.62 3.66-2.93 1.36-3.66 2.72-6.8 11.84-3.46 10.47-3.98 15.4-3.46 31.42.1 3.88-.42 8.8-1.15 11-1.67 4.71-1.67 26.81 0 28.8 1.36 1.79-.42 3.88-3.35 3.88-1.15 0-4.3 2.3-7.01 5.03-2.93 3.04-8.06 6.6-12.46 8.7l-7.32 3.55-.11 41.59v41.69h17.06l17.44-.5 6-9c3.04-4.92 9.22-18.15 14.56-30.1l9.84-21.68 1.67-13.62c1.57-13.2 3.25-21.26 5.44-26.7 2.1-5.04 1.47 14.45-.73 22.51-3.45 12.57-4.6 21.48-3.03 23.26a8.75 8.75 0 0 1 1.57 3.77 9.52 9.52 0 0 0 1.99 3.98c1.36 1.57 1.46 2.51.41 5.55-1.15 3.46-6.28 9.01-8.37 9.01-1.05 0-4.48 3.4-17.35 21.52l-7.77 12h32.97l9.63-15.92c8.48-13.93 9.53-16.13 8.38-18.02-1.58-2.93-3.77-11.2-3.25-12.57.2-.63 1.57-8.7 2.93-17.91 2.83-19.07 6.18-29.33 9.53-29.33 1.67 0 2.09.63 1.88 3.14-.1 1.68-.52 7.65-.73 13-.63 11.4-2.3 22.83-4.4 28.8a25.29 25.29 0 0 0-1.46 7.54c0 1.88-.42 3.77-1.05 4.08-.52.32-1.05 2.62-1.05 5.03 0 5.24-2.22 13.93-7.61 20.85-5.4 6.91-6.5 9.81-5 10.81 1 2 10 .5 69.55.5h74.95v-18.23c0-10.47 7.5-12.77-.94-18.64-.63-.1-7.12-4.82-14.66-10.27-14.86-10.9-16.53-13.3-14.34-20.95.53-1.99 1.16-10.16 1.26-18.22.31-11.63.63-14.88 1.99-16.34 1.36-1.57 1.67-3.77 1.36-10.9-.21-7.33 0-9.11 1.25-9.53 2.2-.73 9.53-12.67 10.16-16.76.31-1.78 0-5.87-.63-9.11-2.2-10.37-2.4-11.84-2.62-15.5-.1-3.15-.62-3.88-4.29-5.56-7.53-3.56-7.95-4.3-7.74-13.72.1-9.85-.32-11.42-3.88-13.1-3.66-1.67-6.07-1.46-8.9.84-2.09 1.68-2.4 2.83-2.2 7.44.11 3.04.64 6.08 1.16 6.7 1.47 1.9-.63 5.77-3.77 7.02-3.24 1.26-13.5.74-14.97-.73-.52-.52-.42-3.77.32-8.07 1.25-7.85.73-9.74-3.46-11.94-6.7-3.35-11.93 4.72-10.25 16.34.2 1.37-.21 2.73-.95 2.94-.73.2-1.36-.84-1.57-2.41-.2-2.3-1.78-3.77-7.95-7.54-9.42-5.66-10.68-7.65-7.54-12.05 1.68-2.2 2.51-5.03 2.83-9.43.42-7.33-.94-10.05-6.28-12.67-5.24-2.41-9.32-2.1-12.14.84Zm84.36 79.4c-.31.83-.63.52-.63-.63-.1-1.16.21-1.78.53-1.36.31.31.41 1.25.1 1.99Zm-146.23 15.5c.42 0 .63.94.32 2.1-.32 1.15.31 3.34 1.25 4.92 2.2 3.24 2.3 14.45.42 30.27l-1.15 9.53-20.51 8.28c-11.2 4.5-20.84 8.48-21.36 8.59-.42.2-.52-.42-.2-1.37.41-.94 3.13-3.24 6.06-5.13 2.93-1.88 9.32-7.12 14.24-11.52 4.92-4.4 9.42-7.96 10.15-7.96.63 0 1.47-.42 1.89-.94.62-1.16 2.4-13.2 5.44-37.3.63-4.92.73-5.02 1.57-2.4.63 1.67 1.36 2.93 1.88 2.93Zm98.5 33.62c1.05 9.43 1.05 11.74-.31 15.72-1.57 4.5-23.66 36.66-28.68 41.79-2.62 2.62-2.62 2.62.41-4.19l9.11-19.38c3.35-6.91 6.39-14.66 6.91-17.28.42-2.62 1.36-7.75 1.99-11.52.63-3.78 1.57-8.9 2.1-11.53.41-2.61 1.67-8.17 2.71-12.46l2-7.65 1.25 7.65c.73 4.3 1.88 12.78 2.51 18.85Zm13.08-7.64a252.66 252.66 0 0 0-2.82 18.33c-.94 8.06-1.78 12.04-3.14 13.62-1.89 2.3-1.89 2.3-.94-.84 1.78-5.97 3.45-23.05 3.24-33.52l-.2-10.37 2.6 2.83c2.73 2.93 2.73 2.93 1.26 9.95Zm19.47 3.03c.32 2.83.1 8.6-.41 12.89-.63 5.13-.53 9.32.1 12.25a45.4 45.4 0 0 1 1.15 9.43c0 5.03-.2 5.45-14.23 22.1-7.86 9.43-14.55 16.76-14.87 16.45-1.57-1.57-1.36-16.76.32-23.57 1.46-5.97 2.4-7.75 5.33-9.95 2-1.47 3.56-3.35 3.56-4.2 0-.83 1.15-3.24 2.62-5.33 1.47-2.1 2.62-5.34 2.62-7.13 0-1.78.94-6.18 1.99-9.74 1.15-3.66 2.3-8.9 2.72-11.73.63-4.92.94-5.24 3.97-5.66 1.89-.2 3.67-.52 3.98-.52.42-.1.94 2 1.15 4.71Zm-150 3.25c-.52.94-2.2 3.56-3.55 5.87-1.99 3.35-3.66 4.5-10.05 7.02-4.19 1.67-7.75 2.82-7.96 2.72-.1-.21 3.35-3.04 7.75-6.5 4.3-3.35 9.1-7.43 10.57-9 2.72-3.15 5.24-3.15 3.25-.1Zm97.46 13.1c0 1.36-.94 3.35-2.2 4.5-1.26 1.05-6.28 8.8-11.2 17.18-10.68 18.12-11 18.54-9 11.94 2.93-9.53 5.65-22.94 5.65-28.28v-5.34l7.64-1.05c4.08-.53 7.85-1.05 8.38-1.16.41-.1.73.95.73 2.2Zm-79.13 19.8c-1.37 2.5-10.16 14.97-11.2 16.02-1.78 1.78 3.55-7.02 7.53-12.36 3.46-4.71 5.34-6.5 3.66-3.67Z" fill="#fff"/><path d="M775.5 138.5c8-2 11-2.5 11.5-2.5l-6.5 23.5 21.5 30.5 10.5 30-45 76.5 49.5-76.5h32.5l-28.5 56 26-42.5 9.5-15.5 22-2 98.5-7 15-29.5 517 374.5v84h-61l-300-266 334 341-34 54-290-282 304 310-21 21-443-485 443 502h-1461l-53-133 762-466-709 424v-20l632-372-632 334v-94l610-280-610 259v-87c212.67-66.67 732-233.3 748-238.5 20-6.5 37.5-18.5 47.5-21Z" fill="#fff"/></svg>